<svg xmlns="http://www.w3.org/2000/svg" viewBox="0 0 300 120">
  <style>
    .logo-text { fill: #36a6ba; font-size: 72px; font-family: Arial, sans-serif; font-weight: bold; }
    .whale { fill: #36a6ba; }
    .sonar-wave { fill: none; stroke: #36a6ba; stroke-width: 6; stroke-linecap: round; }
  </style>
  <g>
    <!-- Whale -->
    <path class="whale" d="M40,70 C35,60 30,65 25,70 C20,75 15,80 15,90 C15,95 20,100 25,100 C30,100 30,95 35,95 C40,95 45,100 50,100 C55,100 60,95 65,90 C70,85 80,80 85,75 C90,70 95,65 100,60 L80,60 C75,65 70,70 65,75 C60,80 55,85 50,85 C45,85 40,80 40,70 Z" />
    <circle class="whale" cx="30" cy="80" r="2" />
    
    <!-- Sonar Waves -->
    <path class="sonar-wave" d="M100,60 C110,50 120,45 130,45" />
    <path class="sonar-wave" d="M100,50 C115,40 130,35 145,35" />
    <path class="sonar-wave" d="M100,40 C120,30 140,25 160,25" />
    
    <!-- Sonar Text -->
    <text x="140" y="85" class="logo-text">Sonar</text>
  </g>
</svg> 